<svg width="20" height="15" viewBox="0 0 20 15" fill="none" xmlns="http://www.w3.org/2000/svg">
<g clip-path="url(#clip0_1379_11925)">
<path d="M20 12.7731C20 13.8698 19.129 14.644 18.0645 14.644H1.93548C0.870968 14.644 0 13.8698 0 12.7731V2.96661C0 1.86984 0.870968 1.09564 1.93548 1.09564H18.0645C19.129 1.09564 20 1.86984 20 2.96661V12.7731Z" fill="#29337A"/>
<path d="M1.93555 1.09564H18.0646C19.1291 1.09564 20.0001 1.86984 20.0001 2.96661V12.7731C20.0001 13.8698 18.9678 14.644 17.9033 14.644" fill="#1B265B"/>
<path d="M1.93549 1.09564H18.0645C19.129 1.09564 20 1.86984 20 2.96661V6.57951" fill="#111D49"/>
<path d="M20 12.7408C20 13.8376 19.129 14.644 18.0645 14.644H1.93548C0.870968 14.644 0 13.8053 0 12.7085" fill="#111D49"/>
<path d="M10.9677 7.86984L17.8387 1.09564H15.9032L9.99996 6.99887L4.09674 1.09564H2.16125L9.03222 7.86984L2.16125 14.644H4.09674L9.99996 8.7408L15.9032 14.644H17.8387L10.9677 7.86984Z" fill="white"/>
<path d="M4.12899 12.7085L2.16125 14.644H4.09674L6.03222 12.7085H4.12899Z" fill="#D9ECED"/>
<path d="M13.9677 12.7085L15.9032 14.644H17.8387L15.8709 12.7085H13.9677Z" fill="#D9ECED"/>
<path d="M16.5806 13.4505L10.9677 7.93435L17.8387 1.09564H15.9032L9.99996 6.99887L4.09674 1.09564H2.16125L3.45158 2.32145L16.5806 13.4505Z" fill="#D9ECED"/>
<path d="M20 6.57951H11.2903V1.09564H8.70968V6.57951H0V9.16016H8.70968V14.644H11.2903V9.16016H20V6.57951Z" fill="white"/>
<path d="M11.2903 12.7085H8.70969V14.644H11.2903V12.7085Z" fill="#D9ECED"/>
<path d="M11.2903 1.09564H8.70969V6.57951H8.48389L11.5161 9.16016H20V6.57951H11.2903V1.09564Z" fill="#D9ECED"/>
<path d="M20 7.22467H10.6452H11.0323L17.4516 1.09564H16.8064L10.6452 7.22467V1.09564H9.35484V7.22467L3.12903 1.09564H2.54839L8.70968 7.22467H0V8.515H8.74194L2.70968 14.644H3.29032L9.35484 8.515V14.644H10.6452V8.57951L16.871 14.644H17.4516L11.2903 8.515H20V7.22467Z" fill="#E51D35"/>
<path d="M10.6451 12.7085H9.35481V14.644H10.6451V12.7085Z" fill="#AF0026"/>
<path d="M4.61285 12.7085L2.70963 14.644H3.29027L5.22575 12.7085H4.61285Z" fill="#AF0026"/>
<path d="M14.9032 12.7085L16.8709 14.644H17.4516L15.4838 12.7085H14.9032Z" fill="#AF0026"/>
<path d="M11.2258 7.22467L17.4516 1.09564H16.8064L10.6451 7.22467V1.09564H9.35479V7.22467L3.12898 1.09564H2.54834L6.09673 4.61177L13.8387 11.1279L11.2903 8.515H20V7.22467H10.6451H11.2258Z" fill="#AF0026"/>
</g>
<defs>
<clipPath id="clip0_1379_11925">
<rect width="20" height="14" fill="white" transform="translate(0 0.869812)"/>
</clipPath>
</defs>
</svg>
