<svg width="20" height="15" viewBox="0 0 20 15" fill="none" xmlns="http://www.w3.org/2000/svg">
<g clip-path="url(#clip0_1379_11884)">
<path d="M0.0014801 0.810501H23.0035V14.8105H0.0014801V0.810501Z" fill="white"/>
<path d="M0.0014801 0.810501H23.0035V1.75675H0.0014801V0.810501ZM0.0014801 2.703H23.0035V3.64925H0.0014801V2.703ZM0.0014801 4.59542H23.0035V5.54167H0.0014801V4.59542ZM0.0014801 6.48792H23.0035V7.43417H0.0014801V6.48792ZM0.0014801 8.38034H23.0035V9.32658H0.0014801V8.38034ZM0.0014801 10.2728H23.0035V11.2191H0.0014801V10.2728ZM0.0014801 12.1653H23.0035V13.1115H0.0014801V12.1653Z" fill="#B22234"/>
<path d="M0.0333405 13.8902H23.0354V14.8364H0.0333405V13.8902ZM0.0333405 15.7826H23.0354V16.7289H0.0333405V15.7826ZM0.0333405 17.6751H23.0354V18.6213H0.0333405V17.6751ZM0.0333405 19.5676H23.0354V20.5138H0.0333405V19.5676ZM0.0333405 21.46H23.0354V22.4062H0.0333405V21.46ZM0.0333405 23.3525H23.0354V24.2987H0.0333405V23.3525ZM0.0333405 25.2449H23.0354V26.1912H0.0333405V25.2449Z" fill="#B22234"/>
<path d="M0.0014801 0.810501H9.2023V7.43409H0.0014801V0.810501Z" fill="#3C3B6E"/>
<path d="M0.433716 1.34822L0.652925 1.51003L0.569198 1.77188L0.788331 1.61006L1.00754 1.77188L0.923813 1.51003L1.14295 1.34822H0.872058L0.788331 1.08646L0.704603 1.34822H0.433716ZM1.95914 1.34822L2.17827 1.51003L2.09454 1.77188L2.31375 1.61006L2.53296 1.77188L2.44923 1.51003L2.66837 1.34822H2.39748L2.31375 1.08646L2.23002 1.34822H1.95914ZM3.48456 1.34822L3.70369 1.51003L3.61996 1.77188L3.83917 1.61006L4.0583 1.77188L3.97458 1.51003L4.19379 1.34822H3.9229L3.83917 1.08646L3.75544 1.34822H3.48456ZM5.00998 1.34822L5.22911 1.51003L5.14538 1.77188L5.36459 1.61006L5.58372 1.77188L5.5 1.51003L5.71921 1.34822H5.44824L5.36459 1.08646L5.28086 1.34822H5.00998ZM6.53532 1.34822L6.75453 1.51003L6.6708 1.77188L6.88993 1.61006L7.10914 1.77188L7.02542 1.51003L7.24455 1.34822H6.97366L6.88993 1.08646L6.80621 1.34822H6.53532ZM8.06074 1.34822L8.27987 1.51003L8.19614 1.77188L8.41535 1.61006L8.63449 1.77188L8.55076 1.51003L8.76997 1.34822H8.49908L8.41535 1.08646L8.33163 1.34822H8.06074ZM1.19639 2.01253L1.4156 2.17434L1.33187 2.4361L1.55108 2.27429L1.77021 2.4361L1.68648 2.17434L1.90569 2.01253H1.63473L1.55108 1.75068L1.46735 2.01253H1.19639ZM2.72181 2.01253L2.94102 2.17434L2.85729 2.4361L3.07642 2.27429L3.29563 2.4361L3.2119 2.17434L3.43104 2.01253H3.16015L3.07642 1.75068L2.9927 2.01253H2.72181ZM4.24723 2.01253L4.46644 2.17434L4.38271 2.4361L4.60184 2.27429L4.82105 2.4361L4.73732 2.17434L4.95646 2.01253H4.68557L4.60184 1.75068L4.51812 2.01253H4.24723ZM5.77265 2.01253L5.99178 2.17434L5.90805 2.4361L6.12726 2.27429L6.3464 2.4361L6.26267 2.17434L6.48188 2.01253H6.21099L6.12726 1.75068L6.04354 2.01253H5.77265ZM7.29799 2.01253L7.5172 2.17434L7.43347 2.4361L7.65261 2.27429L7.87182 2.4361L7.78809 2.17434L8.00722 2.01253H7.73633L7.65261 1.75068L7.56895 2.01253H7.29799ZM0.433716 2.67676L0.652925 2.83857L0.569198 3.10041L0.788331 2.9386L1.00754 3.10041L0.923813 2.83857L1.14295 2.67676H0.872058L0.788331 2.41499L0.704603 2.67676H0.433716ZM1.95914 2.67676L2.17827 2.83857L2.09454 3.10041L2.31375 2.9386L2.53296 3.10041L2.44923 2.83857L2.66837 2.67676H2.39748L2.31375 2.41499L2.23002 2.67676H1.95914ZM3.48456 2.67676L3.70369 2.83857L3.61996 3.10041L3.83917 2.9386L4.0583 3.10041L3.97458 2.83857L4.19379 2.67676H3.9229L3.83917 2.41499L3.75544 2.67676H3.48456ZM5.00998 2.67676L5.22911 2.83857L5.14538 3.10041L5.36459 2.9386L5.58372 3.10041L5.5 2.83857L5.71921 2.67676H5.44824L5.36459 2.41499L5.28086 2.67676H5.00998ZM6.53532 2.67676L6.75453 2.83857L6.6708 3.10041L6.88993 2.9386L7.10914 3.10041L7.02542 2.83857L7.24455 2.67676H6.97366L6.88993 2.41499L6.80621 2.67676H6.53532ZM8.06074 2.67676L8.27987 2.83857L8.19614 3.10041L8.41535 2.9386L8.63449 3.10041L8.55076 2.83857L8.76997 2.67676H8.49908L8.41535 2.41499L8.33163 2.67676H8.06074ZM1.21525 3.34324L1.43438 3.50505L1.35073 3.76682L1.56986 3.60501L1.78907 3.76682L1.70535 3.50498L1.92448 3.34324H1.65359L1.56986 3.0814L1.48614 3.34324H1.21525ZM2.74067 3.34324L2.9598 3.50505L2.87607 3.76682L3.09528 3.60501L3.31442 3.76682L3.23069 3.50498L3.4499 3.34324H3.17901L3.09528 3.0814L3.01156 3.34324H2.74067ZM4.26609 3.34324L4.48522 3.50505L4.40149 3.76682L4.6207 3.60501L4.83984 3.76682L4.75611 3.50498L4.97532 3.34324H4.70436L4.6207 3.0814L4.53698 3.34324H4.26609ZM5.79143 3.34324L6.01064 3.50505L5.92691 3.76682L6.14605 3.60501L6.36526 3.76682L6.28153 3.50498L6.50066 3.34324H6.22978L6.14605 3.0814L6.06232 3.34324H5.79143ZM7.31685 3.34324L7.53599 3.50505L7.45226 3.76682L7.67147 3.60501L7.8906 3.76682L7.80687 3.50498L8.02608 3.34324H7.7552L7.67147 3.0814L7.58774 3.34324H7.31685ZM0.456871 4.00194L0.676081 4.16367L0.592353 4.42552L0.811486 4.2637L1.0307 4.42552L0.946968 4.16367L1.1661 4.00194H0.895214L0.811486 3.7401L0.727759 4.00194H0.456871ZM1.98229 4.00194L2.20142 4.16367L2.1177 4.42552L2.33691 4.2637L2.55604 4.42552L2.47239 4.16367L2.69152 4.00194H2.42063L2.33691 3.7401L2.25318 4.00194H1.98229ZM3.50771 4.00194L3.72684 4.16367L3.64312 4.42552L3.86233 4.2637L4.08146 4.42552L3.99773 4.16367L4.21694 4.00194H3.94605L3.86233 3.7401L3.7786 4.00194H3.50771ZM5.03305 4.00194L5.25226 4.16367L5.16854 4.42552L5.38767 4.2637L5.60688 4.42552L5.52315 4.16367L5.74236 4.00194H5.4714L5.38767 3.7401L5.30402 4.00194H5.03305ZM6.55847 4.00194L6.77761 4.16367L6.69396 4.42552L6.91309 4.2637L7.1323 4.42552L7.04857 4.16367L7.2677 4.00194H6.99682L6.91309 3.7401L6.82936 4.00194H6.55847ZM8.08389 4.00194L8.30303 4.16367L8.2193 4.42552L8.43851 4.2637L8.65764 4.42552L8.57392 4.16367L8.79313 4.00194H8.52224L8.43851 3.7401L8.35478 4.00194H8.08389ZM0.471209 5.30936L0.690342 5.47117L0.606615 5.73302L0.825824 5.57121L1.04496 5.73302L0.96123 5.47117L1.18044 5.30936H0.909552L0.825824 5.0476L0.742097 5.30936H0.471209ZM1.99655 5.30936L2.21576 5.47117L2.13203 5.73302L2.35117 5.57121L2.57038 5.73302L2.48665 5.47117L2.70578 5.30936H2.4349L2.35117 5.0476L2.26744 5.30936H1.99655ZM3.52197 5.30936L3.74111 5.47117L3.65745 5.73302L3.87659 5.57121L4.0958 5.73302L4.01207 5.47117L4.2312 5.30936H3.96031L3.87659 5.0476L3.79286 5.30936H3.52197ZM5.04739 5.30936L5.26653 5.47117L5.1828 5.73302L5.40201 5.57121L5.62114 5.73302L5.53749 5.47117L5.75662 5.30936H5.48573L5.40201 5.0476L5.31828 5.30936H5.04739ZM6.57274 5.30936L6.79195 5.47117L6.70822 5.73302L6.92735 5.57121L7.14656 5.73302L7.06283 5.47117L7.28204 5.30936H7.01108L6.92735 5.0476L6.8437 5.30936H6.57274ZM8.09816 5.30936L8.31729 5.47117L8.23364 5.73302L8.45277 5.57121L8.67198 5.73302L8.58825 5.47117L8.80739 5.30936H8.5365L8.45277 5.0476L8.36904 5.30936H8.09816ZM0.452577 6.63221L0.67171 6.79402L0.587983 7.05586L0.807193 6.89405L1.02633 7.05586L0.942598 6.79402L1.16181 6.63221H0.890843L0.807193 6.37044L0.723465 6.63221H0.452577ZM1.97792 6.63221L2.19713 6.79402L2.1134 7.05586L2.33254 6.89405L2.55175 7.05586L2.46802 6.79402L2.68715 6.63221H2.41626L2.33254 6.37044L2.24881 6.63221H1.97792ZM3.50334 6.63221L3.72247 6.79402L3.63882 7.05586L3.85796 6.89405L4.07717 7.05586L3.99344 6.79402L4.21257 6.63221H3.94168L3.85796 6.37044L3.77423 6.63221H3.50334ZM5.02876 6.63221L5.24789 6.79402L5.16417 7.05586L5.38338 6.89405L5.60251 7.05586L5.51886 6.79402L5.73799 6.63221H5.4671L5.38338 6.37044L5.29965 6.63221H5.02876ZM6.5541 6.63221L6.77331 6.79402L6.68959 7.05586L6.90872 6.89405L7.12793 7.05586L7.0442 6.79402L7.26341 6.63221H6.99245L6.90872 6.37044L6.82507 6.63221H6.5541ZM8.07952 6.63221L8.29866 6.79402L8.21501 7.05586L8.43414 6.89405L8.65335 7.05586L8.56962 6.79402L8.78875 6.63221H8.51787L8.43414 6.37044L8.35041 6.63221H8.07952ZM1.21977 4.64911L1.43891 4.81092L1.35526 5.07268L1.57439 4.91087L1.7936 5.07268L1.70987 4.81092L1.929 4.64911H1.65812L1.57439 4.38726L1.49066 4.64911H1.21977ZM2.74519 4.64911L2.96433 4.81092L2.8806 5.07268L3.09981 4.91087L3.31894 5.07268L3.23529 4.81092L3.45442 4.64911H3.18354L3.09981 4.38726L3.01608 4.64911H2.74519ZM4.27061 4.64911L4.48975 4.81092L4.40602 5.07268L4.62523 4.91087L4.84436 5.07268L4.76063 4.81092L4.97984 4.64911H4.70896L4.62523 4.38726L4.5415 4.64911H4.27061ZM5.79596 4.64911L6.01517 4.81092L5.93144 5.07268L6.15057 4.91087L6.36978 5.07268L6.28605 4.81092L6.50519 4.64911H6.2343L6.15057 4.38726L6.06684 4.64911H5.79596ZM7.32138 4.64911L7.54051 4.81092L7.45678 5.07268L7.67599 4.91087L7.89512 5.07268L7.81147 4.81092L8.03061 4.64911H7.75972L7.67599 4.38726L7.59226 4.64911H7.32138ZM1.21525 5.96985L1.43446 6.13166L1.35073 6.3935L1.56986 6.23169L1.78907 6.3935L1.70535 6.13166L1.92448 5.96985H1.65359L1.56986 5.70809L1.48614 5.96985H1.21525ZM2.74067 5.96985L2.9598 6.13166L2.87607 6.3935L3.09528 6.23169L3.31449 6.3935L3.23077 6.13166L3.4499 5.96985H3.17901L3.09528 5.70809L3.01156 5.96985H2.74067ZM4.26609 5.96985L4.48522 6.13166L4.40149 6.3935L4.6207 6.23169L4.83984 6.3935L4.75611 6.13166L4.97532 5.96985H4.70443L4.6207 5.70809L4.53698 5.96985H4.26609ZM5.79143 5.96985L6.01064 6.13166L5.92691 6.3935L6.14605 6.23169L6.36526 6.3935L6.28153 6.13166L6.50066 5.96985H6.22978L6.14605 5.70809L6.06232 5.96985H5.79143ZM7.31685 5.96985L7.53599 6.13166L7.45226 6.3935L7.67147 6.23169L7.8906 6.3935L7.80695 6.13166L8.02608 5.96985H7.7552L7.67147 5.70809L7.58774 5.96985H7.31685Z" fill="white"/>
</g>
<defs>
<clipPath id="clip0_1379_11884">
<rect y="0.761902" width="20" height="14" rx="2" fill="white"/>
</clipPath>
</defs>
</svg>
